<?xml version="1.0" encoding="utf-8"?>
<!-- Generator: Adobe Illustrator 24.1.2, SVG Export Plug-In . SVG Version: 6.00 Build 0)  -->
<svg version="1.1" id="Layer_1" xmlns="http://www.w3.org/2000/svg" xmlns:xlink="http://www.w3.org/1999/xlink" x="0px" y="0px"
	 viewBox="0 0 70.1 33.8" style="enable-background:new 0 0 70.1 33.8;" xml:space="preserve">
<style type="text/css">
	.st0{fill:#EA4335;}
	.st1{fill:#4285F4;}
	.st2{fill:#FBBC04;}
	.st3{fill:#0F9D58;}
</style>
<g>
	<path class="st0" d="M16.9,17.1l11.4-6.6c2.6-1.5,3.5-4.9,2-7.7c-1.5-2.6-4.9-3.5-7.7-2L2.9,12.1L16.9,17.1z"/>
	<path class="st1" d="M25.4,33.8c2,0,3.8-1.1,4.8-2.8c1.5-2.6,0.6-6.2-2-7.7L8.4,12c-2.6-1.5-6.2-0.6-7.7,2c-1.5,2.6-0.6,6.2,2,7.7
		l19.7,11.4C23.5,33.7,24.4,33.8,25.4,33.8z"/>
	<path class="st2" d="M44.9,33.8c0.9,0,1.8-0.3,2.8-0.8l19.7-11.4l-13.7-5.1l-11.5,6.6c-2.6,1.5-3.5,4.9-2,7.7
		C41.2,32.9,43.1,33.8,44.9,33.8z"/>
	<path class="st3" d="M64.6,22.6c2,0,3.8-1.1,4.8-2.8c1.5-2.6,0.6-6.2-2-7.7L47.7,0.7c-2.6-1.5-6.2-0.6-7.7,2
		c-1.5,2.6-0.6,6.2,2,7.7l19.7,11.4C62.6,22.3,63.7,22.6,64.6,22.6z"/>
</g>
</svg>
