<?xml version="1.0" encoding="utf-8"?>
<!-- Generator: Adobe Illustrator 24.1.2, SVG Export Plug-In . SVG Version: 6.00 Build 0)  -->
<svg version="1.1" id="Layer_1" xmlns="http://www.w3.org/2000/svg" xmlns:xlink="http://www.w3.org/1999/xlink" x="0px" y="0px"
	 viewBox="0 0 657 84.4" style="enable-background:new 0 0 657 84.4;" xml:space="preserve">
<style type="text/css">
	.st0{fill:#636D74;}
	.st1{fill:#4285F4;}
	.st2{fill:#676C72;}
	.st3{fill:#EA4335;}
	.st4{fill:#FBBC04;}
	.st5{fill:#0F9D58;}
</style>
<path class="st0" d="M199.8,40c-10.7,0.2-17.8-11.2-13.7-20.9c3.6-9.5,17.3-12.2,24.2-4.8l-2.4,2.4c-2.9-3.5-8.3-4.3-12.4-2.6
	c-6.1,2.2-8.7,10-6.1,15.8c3.9,10,20.6,9,21.1-2.6h-10.5v-3.2h13.8c0.1,0.7,0.2,1.3,0.2,2l0,0l0,0C214.1,34,207.6,40.2,199.8,40z
	 M227.9,40c-8.4,0.3-12.9-9.4-9.1-16.3c3.6-7.1,14.7-7.1,18.3,0C240.9,30.6,236.3,40.2,227.9,40z M227.9,36.9
	c9.4-0.1,9.4-15.4,0-15.5C218.4,21.5,218.5,36.8,227.9,36.9z M251.7,40c-8.4,0.3-12.9-9.4-9.1-16.3c3.6-7.1,14.7-7.1,18.3,0
	C264.7,30.6,260.1,40.2,251.7,40z M251.7,36.9c9.4-0.1,9.4-15.4,0-15.5C242.2,21.5,242.2,36.8,251.7,36.9z M275,48.6
	c-4.1,0.1-7.7-2.1-9.1-5.7l3.1-1.3c1.4,4.3,8,5.2,10.9,2.1c1.7-1.6,1.8-4.9,1.7-7.5h-0.2c-2.3,3.7-8.1,4.6-11.8,2.2
	c-3.1-2-4.8-5.5-4.7-9.4c0-3.9,1.6-7.4,4.7-9.4c3.7-2.4,9.5-1.6,11.8,2.2h0.2v-2.9h3.2v19.6C285.1,44.5,280.8,48.8,275,48.6z
	 M275,36.6c8.8,0.1,8.9-15.4,0-15.3C266.1,21.3,266.1,36.7,275,36.6z M289.9,39.3V10.7h3.4v28.6H289.9z M307.3,40
	c-10.6,0.3-13.7-14.7-5.5-20.2c7.3-4.4,15.7,1,15,9.5c0,0.2,0,0.3-0.1,0.5h-17.5V27h14c-0.2-6.4-9.5-7.7-11.9-1.8
	c-1.6,3.6-0.9,9,2.8,10.9c3.4,1.9,7.7,0.5,9.3-2.8l2.9,1.4C314.5,38,311.4,40,307.3,40z M330.6,39.3V10.7h8.6
	c8.4-0.3,14.7,6,14.5,14.3c0.2,8.3-6.1,14.6-14.5,14.3C339.2,39.3,330.6,39.3,330.6,39.3z M334,36.1c0,0,5.2,0,5.2,0
	c6.5,0.2,11.3-4.5,11-11.1c0.3-6.6-4.5-11.3-11-11.1c0,0-5.2,0-5.2,0V36.1z M367.1,40c-10.6,0.3-13.7-14.7-5.5-20.2
	c7.3-4.4,15.7,1,15,9.5c0,0.2,0,0.3-0.1,0.5h-17.5V27h14c-0.2-6.4-9.5-7.7-11.9-1.8c-1.6,3.6-0.9,9,2.8,10.9
	c3.4,1.9,7.7,0.5,9.3-2.8l2.9,1.4C374.3,38,371.2,40,367.1,40z M385.9,39.3l-8.3-20.4h3.6l6.3,16.4h0.1l6.4-16.4h3.6l-8.3,20.4
	H385.9z M409,40c-10.6,0.3-13.7-14.7-5.5-20.2c7.3-4.4,15.7,1,15,9.5c0,0.2,0,0.3-0.1,0.5h-17.5V27h14c-0.2-6.4-9.5-7.7-11.9-1.8
	c-1.6,3.6-0.9,9,2.8,10.9c3.4,1.9,7.7,0.5,9.3-2.8l2.9,1.4C416.3,38,413.1,40,409,40z M422.4,39.3V10.7h3.4v28.6H422.4z M440.1,40
	c-8.4,0.3-12.9-9.4-9.1-16.3c3.6-7.1,14.7-7.1,18.3,0C453.1,30.6,448.5,40.2,440.1,40z M440.1,36.9c9.4-0.1,9.4-15.4,0-15.5
	C430.6,21.5,430.7,36.8,440.1,36.9z M454.5,48v-29h3.2v3h0.2c2.3-3.9,8.3-4.8,12-2.3c3.1,2,4.8,5.6,4.7,9.4c0,3.9-1.6,7.4-4.8,9.5
	c-3.6,2.5-9.7,1.6-12-2.3h-0.2l0.2,2.8V48H454.5z M464.5,36.9c8.9-0.2,8.9-15.4,0-15.5C455.5,21.5,455.5,36.8,464.5,36.9z M487.6,40
	c-10.6,0.3-13.7-14.7-5.5-20.2c7.3-4.4,15.7,1,15,9.5c0,0.2,0,0.3-0.1,0.5h-17.5V27h14c-0.2-6.4-9.5-7.7-11.9-1.8
	c-1.6,3.6-0.9,9,2.8,10.9c3.4,1.9,7.7,0.5,9.3-2.8l2.9,1.4C494.8,38,491.7,40,487.6,40z M500.9,39.3V18.9h3.2v3.3h0.2
	c1-2.8,4.6-4.3,7.4-3.8c0.4,0.1,0.7,0.2,1,0.3v3.7c-0.4-0.2-0.9-0.4-1.4-0.5c-3.7-1.1-7.1,2.3-6.9,6c0,0,0,11.4,0,11.4H500.9z
	 M539.1,40c-10.7,0.2-17.8-11.2-13.7-20.9c3.6-9.5,17.3-12.2,24.2-4.8l-2.4,2.4c-2.9-3.5-8.3-4.3-12.4-2.6c-6.1,2.2-8.7,10-6.1,15.8
	c3.9,10,20.6,9,21.1-2.6h-10.5v-3.2H553c0.1,0.7,0.2,1.3,0.2,2l0,0l0,0C553.5,34,546.9,40.2,539.1,40z M557.7,39.3V18.9h3.2v3.3h0.2
	c1-2.8,4.6-4.3,7.4-3.8c0.4,0.1,0.7,0.2,1,0.3v3.7c-0.4-0.2-0.9-0.4-1.4-0.5c-3.7-1.1-7.1,2.3-6.9,6c0,0,0,11.4,0,11.4H557.7z
	 M581,40c-8.4,0.3-12.9-9.4-9.1-16.3c3.6-7.1,14.7-7.1,18.3,0C594,30.6,589.4,40.2,581,40z M581,36.9c9.4-0.1,9.4-15.4,0-15.5
	C571.6,21.5,571.6,36.8,581,36.9z M602.8,40c-5.1,0-7.6-3.3-7.6-8.2c0,0,0-12.8,0-12.8h3.4v12.3c0,2,0.5,3.5,1.4,4.3
	c2.6,2.5,7.3,1.2,8.7-2.1c0.5-1,0.7-2,0.7-3.1V18.9h3.4v20.4h-3.2v-3h-0.2C608.1,38.6,605.4,40,602.8,40z M617.8,48v-29h3.2v3h0.2
	c2.3-3.9,8.3-4.8,12-2.3c3.1,2,4.8,5.6,4.8,9.4c0,3.9-1.6,7.4-4.8,9.5c-3.6,2.5-9.7,1.6-12-2.3H621l0.2,2.8V48H617.8z M627.8,36.9
	c8.9-0.2,8.9-15.4,0-15.5C618.8,21.5,618.8,36.8,627.8,36.9z M648.9,40c-3.8,0.1-7.3-2-8.6-5.5l3-1.4c1,2.4,3.2,3.9,5.8,3.8
	c2.1,0,4.4-0.7,4.4-3c0-1.3-0.8-2-2-2.6c-2.2-1-5.5-1.2-7.6-2.6c-4.4-2.3-3.5-8.3,1.1-9.8c4-1.6,9.7-0.6,11.5,3.7l-3,1.4
	c-1.3-2.9-5.3-3.4-7.8-2c-1.6,0.8-1.7,3.1-0.2,3.9c1.2,0.8,4,1.4,5.5,1.8C660.6,30,657.8,40.2,648.9,40z"/>
<path class="st1" d="M197.1,74.8c-6.7,0.3-11.2-7.2-8.6-13.2c2.9-7.7,14.3-7.7,17.2,0C208.3,67.6,203.8,75.1,197.1,74.8z
	 M197.1,72.8c9.4-0.1,9.5-14.8,0-14.8C187.6,58,187.7,72.7,197.1,72.8z M209.1,74.4V61.5h2v1.9h0.1c1.3-2.6,6-3.1,7.8-0.9
	c0.8,0.9,1.2,2.1,1.2,3.7v8.3H218v-8c0-1.3-0.3-2.1-0.9-2.6c-1.6-1.5-4.6-0.8-5.5,1.3c-0.3,0.6-0.5,1.3-0.5,2v7.3H209.1z
	 M238.1,74.8c-6.8,0.2-11.3-7.2-8.7-13.2c2.3-6,11.2-7.8,15.3-2.8l-1.5,1.5c-4-5.1-12.7-1.5-12.3,5c-0.3,7,8.6,10.1,12.8,4.7
	l1.6,1.5C243.5,73.6,240.8,74.8,238.1,74.8z M251.4,74.8c-1.8,0-3.3-0.7-4.3-2.1c-2.4-4.5,2.3-7.4,6.4-6.4c0.5,0.1,0.9,0.2,1.3,0.3
	c0.4,0.1,0.6,0.2,0.8,0.4c0.6-4.2-5-5.3-7-2.2l-1.6-1.2c2.8-4.2,11-3,10.7,2.7c0,0,0,8.2,0,8.2h-2v-1.8h-0.1
	C254.8,73.9,253.1,74.9,251.4,74.8z M251.6,72.9c2.2,0,4.1-1.9,4.1-4.1c-1.5-1.1-4.7-1.3-6.1-0.2C247.7,70.4,249.2,73.1,251.6,72.9z
	 M260.7,74.4V61.5h2v1.9h0.1c1.6-3,6.7-3.1,8,0.2c1.3-2.7,6-3.5,7.8-1.1c0.7,0.9,1.1,2.1,1.1,3.6v8.3h-2.1v-8c0-1.3-0.3-2.1-0.8-2.6
	c-1.5-1.5-4.4-0.7-5.1,1.3c-0.3,0.6-0.4,1.3-0.4,2v7.3h-2.2v-7.9c0-1.3-0.3-2.1-0.8-2.7c-1.5-1.6-4.3-0.7-5.1,1.3
	c-0.3,0.6-0.4,1.3-0.4,2v7.3H260.7z M282.8,79.9V61.5h2v1.9h0.1c3.6-5.1,11-1.3,10.6,4.5c0.3,5.8-7,9.6-10.6,4.5h-0.1l0.1,1.8v5.6
	H282.8z M289.1,72.9c5.6-0.1,5.6-9.8,0-9.8C283.5,63.1,283.5,72.8,289.1,72.9z M302.7,74.8c-3.2,0-4.8-2.1-4.8-5.2c0,0,0-8.1,0-8.1
	h2.2v7.8c0,1.3,0.3,2.2,0.9,2.8c1.7,1.6,4.6,0.8,5.5-1.3c0.3-0.6,0.5-1.3,0.5-2v-7.3h2.2v12.9H307v-1.9h-0.1c-0.5,0.9-1.5,1.6-2.5,2
	C303.9,74.7,303.3,74.8,302.7,74.8z M316.7,74.8c-2.4,0.1-4.6-1.2-5.4-3.5l1.9-0.9c0.3,0.8,0.8,1.4,1.5,1.8c1.7,1.3,6.3,0.5,4.7-2.2
	c-0.2-0.3-0.5-0.5-1-0.7c-0.7-0.3-2.3-0.7-3.1-0.9c-2.7-0.5-4.7-3.2-2.8-5.6c1.4-1.7,4.2-2.1,6.3-1.4c1.3,0.4,2.3,1.2,2.8,2.5
	l-1.9,0.9c-0.8-2.2-5.4-2.5-5.7,0c0,1.8,2.8,1.9,4.1,2.4C324,68.5,322.3,75,316.7,74.8z"/>
<path class="st2" d="M333.2,69.1c-2.1,0.1-3.6-2.5-2.5-4.3c1-1.9,3.9-1.9,4.9,0C336.8,66.6,335.3,69.1,333.2,69.1z M350.9,74.8
	c-2.9,0-5.6-2-6.3-4.9l2-0.8c0.8,3.5,5.2,5.1,7.6,2.3c1.7-2.8-0.8-4.6-3.4-5.4c-1.4-0.5-3-1-4.1-2c-1.6-1.3-1.8-3.9-0.7-5.7
	c2.4-3.8,9.1-2.9,10.4,1.2l-2,0.9c-0.1-0.4-0.3-0.7-0.6-1.1c-1.3-1.8-4.5-1.8-5.9,0c-0.8,1-0.6,2.5,0.4,3.2c2.4,1.7,6.7,1.7,8.1,4.9
	c1.4,2.8-0.3,6.5-3.5,7.2C352.3,74.7,351.6,74.8,350.9,74.8z M359.9,74.4V56.3h6.1c1,0,2,0.2,2.8,0.7c3.9,1.9,3.7,8.1-0.5,9.6
	c-1.5,0.8-5.5,0.4-7.2,0.5v-2c1.7-0.1,5.5,0.3,6.6-0.4c2.3-1.1,2.4-4.5,0.2-5.8c-1-0.8-4.5-0.4-5.8-0.5v16.1H359.9z M364.3,66.1
	l2.4-0.1l5.7,8.3v0.1h-2.5L364.3,66.1z M374.9,74.4V56.3h3.1l5.8,14.9h0.1l5.8-14.9h3.1v18.1h-2.1V62.9l0.1-3.4h-0.1l-5.9,15H383
	l-5.9-15h-0.1l0.1,3.4v11.5H374.9z M405.3,74.8c-6.8,0.2-11.3-7.2-8.7-13.2c2.3-6,11.2-7.8,15.3-2.8l-1.5,1.5
	c-4-5.1-12.7-1.5-12.3,5c-0.3,7,8.6,10.1,12.8,4.7l1.6,1.5C410.7,73.6,408,74.8,405.3,74.8z M415.4,74.4V56.3h10.5v2.1h-8.3v14h8.3
	v2H415.4z M416.6,66.4v-2h8.5v2H416.6z M429.2,74.4V56.3h3.1l5.8,14.9h0.1l5.8-14.9h3.1v18.1H445V62.9l0.1-3.4H445l-5.9,15h-1.8
	l-5.9-15h-0.1l0.1,3.4v11.5H429.2z"/>
<g>
	<path class="st3" d="M42.2,42.6l28.4-16.5c6.5-3.8,8.8-12.3,5-19.2c-3.8-6.5-12.3-8.8-19.2-5L7.2,30.3L42.2,42.6z"/>
	<path class="st1" d="M63.3,84.4c5,0,9.6-2.7,11.9-6.9c3.8-6.5,1.5-15.4-5-19.2L21.1,29.9c-6.5-3.8-15.4-1.5-19.2,5
		c-3.8,6.5-1.5,15.4,5,19.2L56,82.5C58.7,84,61,84.4,63.3,84.4z"/>
	<path class="st4" d="M112.1,84.4c2.3,0,4.6-0.8,6.9-1.9l49.2-28.4L134,41.4l-28.8,16.5c-6.5,3.8-8.8,12.3-5,19.2
		C102.9,82.1,107.5,84.4,112.1,84.4z"/>
	<path class="st5" d="M161.2,56.4c5,0,9.6-2.7,11.9-6.9c3.8-6.5,1.5-15.4-5-19.2L119,1.9c-6.5-3.8-15.4-1.5-19.2,5
		c-3.8,6.5-1.5,15.4,5,19.2l49.2,28.4C156.2,55.6,158.9,56.4,161.2,56.4z"/>
</g>
</svg>
